<?xml version="1.0" standalone="no"?>
<!DOCTYPE svg PUBLIC "-//W3C//DTD SVG 20010904//EN"
 "http://www.w3.org/TR/2001/REC-SVG-20010904/DTD/svg10.dtd">
<svg version="1.0" xmlns="http://www.w3.org/2000/svg"
 width="828.000000pt" height="828.000000pt" viewBox="0 0 828.000000 828.000000"
 preserveAspectRatio="xMidYMid meet">

<g transform="translate(0.000000,828.000000) scale(0.100000,-0.100000)"
fill="#000000" stroke="none">
<path d="M3895 7685 c-11 -2 -69 -9 -130 -15 -558 -59 -1111 -263 -1600 -590
-315 -211 -648 -531 -880 -845 -219 -296 -420 -693 -528 -1045 -115 -371 -161
-683 -160 -1080 0 -332 28 -555 105 -864 205 -822 700 -1544 1402 -2044 386
-276 869 -485 1341 -581 287 -58 370 -65 725 -65 287 0 342 3 470 22 294 46
541 109 783 198 154 58 490 223 627 309 759 478 1305 1203 1549 2054 234 816
169 1680 -184 2465 -269 597 -717 1121 -1275 1493 -390 259 -848 446 -1305
532 -232 44 -325 52 -625 56 -162 2 -304 2 -315 0z m585 -226 c972 -95 1858
-610 2428 -1412 288 -406 487 -890 571 -1392 31 -187 44 -344 44 -550 0 -1095
-520 -2104 -1413 -2745 -933 -669 -2157 -811 -3231 -375 -699 284 -1296 813
-1668 1477 -476 851 -559 1873 -227 2789 164 454 410 847 746 1192 288 297
562 498 928 681 554 278 1196 396 1822 335z"/>
<path d="M3850 7329 c-222 -19 -516 -82 -747 -158 -721 -239 -1350 -748 -1742
-1406 -102 -171 -130 -227 -196 -380 -338 -792 -352 -1664 -38 -2470 56 -145
175 -380 263 -520 943 -1507 2910 -1973 4430 -1050 468 284 874 707 1144 1193
170 305 296 659 355 1002 40 228 46 303 46 565 0 262 -6 337 -46 565 -92 529
-321 1033 -665 1465 -107 134 -355 383 -484 486 -515 411 -1120 653 -1765 709
-138 11 -416 11 -555 -1z m391 -194 c15 -8 31 -20 35 -26 5 -8 3 -9 -6 -4 -9
5 -11 4 -6 -4 4 -6 11 -9 16 -6 14 9 38 -34 50 -89 9 -39 8 -59 -5 -102 -19
-66 -31 -70 -26 -8 2 33 0 44 -8 40 -6 -4 -9 -11 -6 -16 3 -5 -3 -14 -14 -19
-15 -8 -20 -7 -26 6 -4 12 3 26 23 43 24 20 28 30 22 50 -4 14 -12 24 -18 23
-6 -2 -9 4 -6 12 8 20 -5 19 -29 -2 -16 -15 -37 -18 -122 -17 l-104 2 -9 -28
c-7 -19 -7 -31 1 -39 17 -17 34 -13 40 9 3 11 11 20 19 20 10 0 9 -3 -2 -11
-11 -8 -8 -9 14 -4 23 5 27 3 23 -9 -7 -19 9 -22 17 -3 5 10 7 10 12 0 8 -18
25 -16 18 1 -3 8 0 17 7 22 7 4 10 3 5 -4 -3 -5 -2 -12 2 -14 5 -1 12 -14 15
-28 6 -24 4 -25 -41 -28 -89 -5 -97 -7 -104 -27 -5 -17 -6 -16 -7 6 -1 30 -31
63 -38 41 -3 -6 -10 -9 -16 -5 -6 4 -8 1 -5 -8 15 -40 20 -63 11 -54 -16 16
-32 94 -27 133 6 45 35 107 51 107 6 0 15 4 20 9 5 5 3 6 -4 2 -24 -13 -13 3
12 20 54 36 156 39 216 9z m-323 -251 c12 -8 22 -24 22 -35 0 -11 5 -29 10
-40 27 -50 -145 1 -188 56 -12 15 -22 31 -22 34 0 12 155 -1 178 -15z m622 17
c0 -41 -134 -121 -190 -113 -25 4 -28 7 -20 22 6 10 10 27 10 38 0 33 29 47
109 53 42 3 79 6 84 7 4 1 7 -2 7 -7z m-838 -13 c22 -6 44 -21 50 -32 32 -62
96 -131 143 -152 27 -13 58 -24 68 -24 26 0 21 -16 -19 -60 -61 -68 -150 -78
-252 -30 -41 19 -61 34 -56 41 5 8 3 9 -6 4 -28 -17 -160 149 -185 233 -6 21
-4 22 32 17 21 -4 56 -2 78 3 56 14 101 14 147 0z m1086 -2 c28 1 52 -3 52 -8
0 -24 -59 -125 -93 -162 -22 -22 -33 -32 -26 -21 7 11 -1 7 -17 -10 -16 -16
-28 -33 -27 -37 3 -9 -83 -61 -126 -76 -45 -16 -114 -15 -154 2 -32 13 -97 78
-97 96 0 6 7 10 15 10 8 0 38 11 67 24 53 23 102 73 144 144 24 42 61 53 144
45 36 -4 89 -7 118 -7z m-2003 -42 c-10 -19 -15 -57 -15 -112 0 -147 -37 -199
-161 -226 -37 -8 -58 -45 -75 -134 -23 -119 -77 -191 -164 -216 -19 -6 -17 -3
10 14 45 28 79 60 92 85 6 12 -5 6 -28 -16 -64 -59 -84 -69 -141 -69 -54 0
-64 8 -39 29 8 7 17 22 20 35 3 14 20 29 44 40 21 9 50 32 64 49 32 41 71 117
64 125 -3 3 -6 0 -6 -7 0 -7 -4 -9 -10 -6 -16 10 -11 66 9 112 28 61 60 78
151 79 115 1 144 25 156 129 7 60 30 132 39 123 3 -3 -1 -18 -10 -34z m2723
-6 c6 -18 13 -59 17 -91 5 -43 14 -66 33 -88 26 -28 32 -30 113 -32 102 -3
131 -18 160 -80 20 -46 25 -102 9 -112 -5 -3 -10 -1 -10 6 0 7 -3 10 -6 7 -9
-10 42 -101 75 -134 17 -17 43 -37 59 -43 22 -10 79 -88 69 -97 -8 -8 -86 -5
-109 4 -16 6 -48 30 -73 53 -25 23 -45 37 -45 32 0 -13 58 -67 100 -93 28 -17
30 -20 10 -15 -44 12 -100 57 -125 100 -14 22 -31 75 -39 117 -17 89 -38 126
-75 134 -124 27 -161 79 -161 226 0 53 -5 93 -14 111 -8 15 -11 27 -6 27 5 0
13 -15 18 -32z m-1398 -9 c-12 -8 -10 -9 7 -4 12 3 24 1 28 -5 8 -12 -34 -13
-54 -1 -11 7 -10 11 5 19 23 13 34 5 14 -9z m-627 -76 c31 -50 34 -60 22 -72
-11 -12 -19 -12 -40 -3 -14 6 -25 8 -25 3 0 -9 33 -26 68 -36 12 -4 20 -11 17
-16 -6 -8 8 -13 27 -10 4 0 42 -14 85 -33 43 -18 85 -36 93 -38 8 -3 -15 -10
-50 -17 -35 -7 -81 -21 -102 -32 -44 -23 -49 -23 -42 -6 6 18 -33 67 -54 67
-14 0 -14 -2 2 -13 19 -14 15 -58 -7 -75 -33 -25 -89 -19 -109 12 -5 8 -8 7
-8 -2 0 -21 44 -59 67 -57 11 0 28 9 38 18 9 10 21 14 27 11 16 -10 -32 -44
-62 -44 -14 0 -35 7 -48 15 -29 21 -75 101 -66 116 4 8 3 9 -5 5 -18 -11 -42
59 -42 122 0 85 56 142 142 142 33 0 39 -5 72 -57z m1475 30 c38 -28 52 -60
52 -124 0 -41 -6 -67 -25 -100 -14 -24 -32 -58 -40 -76 -18 -38 -60 -73 -89
-73 -19 0 -86 34 -86 44 0 10 32 -1 40 -14 10 -16 66 -16 86 1 8 7 20 21 26
32 10 19 8 19 -26 -2 -24 -15 -43 -20 -58 -15 -31 9 -58 39 -58 63 0 11 8 25
18 30 13 8 14 10 2 11 -24 0 -43 -17 -35 -30 5 -8 4 -11 -2 -7 -6 4 -14 -4
-17 -17 l-6 -25 -53 24 c-28 13 -74 27 -102 31 l-50 7 35 12 c20 7 60 25 89
39 29 15 59 25 66 22 7 -2 21 4 31 15 10 11 24 17 31 15 7 -3 13 -2 13 3 0 4
10 13 23 19 20 10 19 10 -9 6 -19 -4 -34 -1 -42 9 -10 11 -5 25 25 71 l38 58
48 -5 c27 -2 61 -13 75 -24z m-922 -10 c-7 -7 -26 7 -26 19 0 6 6 6 15 -2 9
-7 13 -15 11 -17z m-772 -4 c-16 -17 -19 -35 -17 -96 2 -91 -20 -146 -70 -169
l-32 -15 44 5 c24 2 49 10 55 17 8 9 8 10 -3 4 -9 -5 -7 2 5 17 23 31 37 23
55 -30 22 -65 11 -120 -35 -171 l-21 -24 21 11 c21 11 47 56 57 97 4 15 5 14
6 -7 1 -37 -16 -78 -47 -110 -27 -30 -51 -35 -83 -18 -26 14 -24 29 4 24 13
-3 9 1 -11 10 -19 9 -38 28 -46 47 l-13 31 -20 -28 c-25 -36 -32 -57 -35 -112
-1 -32 -6 -41 -16 -37 -7 3 -20 5 -27 5 -7 0 -17 15 -21 33 -7 31 -8 31 -14 7
-6 -23 -7 -22 -14 13 -4 20 -4 42 0 49 4 6 3 8 -3 5 -15 -9 -37 76 -30 115 l6
33 -14 -30 c-7 -16 -10 -36 -7 -44 4 -11 -2 -9 -22 5 -22 16 -26 24 -22 53 13
87 130 204 284 285 97 51 114 56 86 25z m1992 -127 c115 -96 161 -202 106
-240 -20 -13 -23 -13 -22 -1 1 8 2 23 1 34 -1 16 -3 17 -10 5 -6 -8 -7 -18 -4
-23 8 -13 -18 -98 -28 -91 -5 3 -7 -1 -4 -8 2 -7 0 -29 -4 -48 -7 -29 -9 -31
-10 -10 -2 24 -2 24 -15 -6 -8 -17 -23 -34 -35 -37 -22 -5 -23 -4 -36 78 -4
21 -16 53 -28 69 l-21 30 -6 -24 c-3 -14 -21 -36 -40 -49 -19 -13 -27 -21 -17
-18 9 4 17 2 17 -3 0 -16 -41 -32 -65 -26 -26 7 -68 57 -80 94 -10 33 8 27 23
-8 8 -17 24 -35 35 -41 l22 -12 -22 24 c-45 50 -58 115 -33 173 25 60 41 67
49 21 3 -16 44 -34 76 -34 l30 0 -30 13 c-53 23 -69 60 -71 159 0 52 -5 92
-12 99 -62 62 142 -43 234 -120z m-1179 40 c-33 -34 -36 -53 -4 -26 l22 19
-19 -23 c-11 -12 -21 -20 -24 -17 -3 2 -11 -7 -19 -21 -16 -31 -17 -82 -3
-120 13 -34 6 -43 -11 -13 -17 33 -15 119 4 156 9 17 29 40 44 52 39 28 42 26
10 -7z m177 -41 c27 -47 26 -128 -2 -172 -24 -37 -30 -29 -7 11 29 50 14 130
-37 195 l-23 30 25 -16 c14 -9 34 -31 44 -48z m-89 -1 c10 -16 24 -70 19 -70
-3 0 -10 14 -15 30 -7 18 -18 30 -29 30 -11 0 -22 -12 -29 -30 -5 -16 -12 -30
-15 -30 -5 0 -5 3 13 53 11 27 43 37 56 17z m-61 -125 c5 -22 4 -26 -4 -15 -5
8 -10 24 -10 34 0 26 6 18 14 -19z m83 13 c-3 -8 -6 -5 -6 6 -1 11 2 17 5 13
3 -3 4 -12 1 -19z m-372 -36 c-6 -5 -37 -14 -70 -21 -108 -23 -237 -94 -334
-185 -42 -39 -43 -39 -16 -6 69 85 210 169 338 201 85 21 94 22 82 11z m775
-23 c100 -29 277 -142 295 -187 4 -12 3 -13 -9 -3 -8 7 -20 10 -25 6 -6 -3 -8
0 -5 9 4 9 -14 28 -55 55 -33 23 -65 41 -70 41 -6 0 -11 4 -11 9 0 15 -112 59
-182 72 -37 7 -65 15 -63 19 6 9 43 3 125 -21z m1445 -50 c54 -83 107 -130
197 -175 132 -66 174 -109 189 -189 4 -22 15 -62 25 -89 15 -42 16 -57 6 -104
-6 -30 -14 -58 -17 -61 -13 -13 -45 47 -60 113 -21 89 -47 139 -101 191 -46
46 -108 72 -183 80 -24 2 -51 11 -61 20 -23 21 -44 95 -36 131 3 16 7 50 8 77
1 26 3 47 4 47 1 0 14 -19 29 -41z m-3751 -56 c8 -69 -6 -133 -34 -158 -10 -9
-40 -18 -66 -21 -27 -2 -77 -18 -111 -34 -88 -43 -142 -116 -164 -222 -6 -29
-22 -73 -34 -98 l-23 -45 -12 30 c-21 52 -23 107 -5 155 9 25 20 63 24 85 15
80 60 126 183 185 88 42 161 106 205 180 21 37 28 26 37 -57z m615 38 c61 -61
88 -163 55 -209 -17 -24 -4 -31 16 -7 26 31 93 8 130 -46 18 -25 21 -40 17
-82 -8 -84 -64 -114 -140 -75 -24 12 -56 84 -57 123 0 23 -3 27 -10 15 -29
-46 0 -134 68 -202 46 -48 49 -58 11 -37 -11 6 -30 12 -41 14 -11 3 -27 12
-35 22 -8 10 -12 12 -8 6 9 -19 -1 -16 -43 11 -53 34 -117 107 -132 151 -17
52 -7 110 28 154 56 70 84 124 86 162 0 22 4 39 9 39 4 0 24 -17 46 -39z
m2537 0 c2 -37 32 -91 95 -172 26 -33 35 -97 19 -145 -19 -56 -95 -132 -165
-164 -129 -59 -141 -59 -79 1 61 58 92 155 64 199 -7 12 -10 8 -10 -15 -1 -39
-33 -111 -57 -123 -10 -5 -33 -13 -52 -17 -26 -5 -32 -4 -26 6 6 9 4 11 -8 6
-11 -4 -23 3 -37 20 -42 53 -16 154 49 188 38 19 65 19 81 0 7 -8 17 -15 23
-15 5 0 3 8 -6 18 -36 40 -7 152 54 213 22 22 42 39 47 39 4 0 8 -18 8 -39z
m-751 -9 c-3 -3 -11 0 -18 7 -9 10 -8 11 6 5 10 -3 15 -9 12 -12z m-606 -71
c68 -107 65 -117 -4 -14 -30 46 -55 85 -55 88 0 14 12 -1 59 -74z m139 2 c-25
-37 -50 -77 -56 -88 -6 -11 -12 -16 -12 -11 0 21 99 180 108 171 2 -2 -16 -35
-40 -72z m-103 26 c9 -17 15 -33 13 -35 -3 -2 -12 12 -21 31 -21 43 -13 47 8
4z m58 -4 c-9 -19 -18 -33 -21 -31 -4 5 26 66 33 66 3 0 -3 -16 -12 -35z
m-1016 -142 c6 -37 -4 -86 -16 -79 -4 3 -11 31 -14 63 -4 32 -9 76 -12 98 l-5
40 21 -45 c11 -25 23 -59 26 -77z m2004 42 c-6 -24 -11 -60 -11 -80 0 -25 -4
-35 -12 -32 -19 6 -14 95 8 145 22 51 31 32 15 -33z m-2557 -44 c-25 -75 -99
-150 -176 -179 -30 -11 -64 -19 -74 -17 -11 2 -53 11 -95 21 -96 21 -138 10
-175 -45 -25 -39 -54 -149 -54 -211 0 -36 -54 -140 -76 -147 -34 -11 -54 143
-34 263 19 123 61 196 136 240 60 35 151 43 227 19 117 -37 258 -1 297 76 11
21 20 51 21 66 l1 28 10 -29 c9 -24 7 -41 -8 -85z m3101 12 c42 -71 173 -103
287 -69 172 50 304 -21 354 -189 32 -109 21 -335 -17 -335 -16 0 -69 92 -74
129 -31 205 -56 261 -123 282 -32 9 -52 8 -106 -5 -96 -24 -137 -23 -201 8
-101 50 -178 169 -159 249 l8 32 6 -35 c3 -19 14 -49 25 -67z m-1555 83 c0 -3
-4 -8 -10 -11 -5 -3 -10 -1 -10 4 0 6 5 11 10 11 6 0 10 -2 10 -4z m750 -71
c0 -5 -5 -3 -10 5 -5 8 -10 20 -10 25 0 6 5 3 10 -5 5 -8 10 -19 10 -25z
m-3069 -70 c26 -56 23 -90 -11 -163 -17 -35 -30 -80 -30 -100 0 -45 32 -116
92 -204 69 -100 92 -166 92 -268 0 -75 -4 -93 -31 -153 -18 -37 -35 -67 -38
-67 -3 0 4 19 16 43 16 29 23 64 25 117 l3 75 -13 -75 c-16 -88 -41 -142 -88
-187 -29 -28 -39 -32 -85 -31 -37 1 -53 5 -53 15 0 7 4 13 9 13 21 0 42 88 44
182 2 86 0 99 -21 127 -27 37 -9 43 33 10 19 -16 26 -28 22 -45 -6 -35 9 -29
22 7 30 85 0 161 -103 265 -73 74 -86 99 -86 164 0 39 27 111 52 137 12 13 16
23 10 23 -16 0 -62 -64 -78 -107 -7 -21 -13 -30 -14 -20 0 34 27 82 71 122
l44 40 3 -40 c4 -58 11 -85 23 -85 6 0 6 6 0 18 -7 13 -4 30 9 60 12 26 15 42
8 42 -6 0 -3 9 8 21 14 16 19 35 18 75 -1 48 0 53 14 42 8 -7 23 -31 33 -53z
m4664 6 c0 -34 6 -55 19 -70 11 -12 14 -21 8 -21 -7 0 -3 -18 9 -46 17 -38 18
-48 7 -62 -12 -15 -11 -16 5 -3 15 12 18 26 15 63 -1 26 0 48 4 48 18 0 90
-76 104 -108 23 -57 16 -58 -13 -2 -16 29 -39 60 -53 68 l-25 16 22 -25 c28
-31 53 -100 53 -146 0 -54 -23 -95 -89 -158 -97 -92 -136 -205 -96 -275 l14
-25 1 23 c0 26 41 72 65 72 13 0 11 -6 -7 -31 -18 -24 -23 -45 -24 -101 -2
-80 15 -164 39 -199 25 -35 22 -39 -37 -39 -50 0 -56 3 -93 43 -46 49 -70 106
-82 192 l-9 60 -1 -66 c-1 -55 4 -76 28 -125 25 -49 26 -54 7 -31 -63 78 -80
239 -37 350 13 33 44 89 69 125 60 88 92 159 92 203 0 20 -14 67 -31 103 -26
55 -30 74 -25 109 7 42 39 107 53 107 5 0 8 -22 8 -49z m-2157 -12 c229 -52
426 -214 532 -434 144 -299 86 -657 -145 -891 -93 -94 -183 -148 -325 -196
-82 -27 -113 -32 -227 -36 -147 -5 -235 9 -352 57 -313 128 -508 467 -469 814
42 381 332 664 728 710 58 7 170 -3 258 -24z m-1514 -210 c27 -16 30 -23 27
-61 -2 -36 3 -49 30 -78 19 -21 27 -26 20 -13 -14 27 -11 83 4 83 5 0 26 -5
46 -10 74 -21 119 -89 83 -125 -17 -17 -79 -20 -89 -5 -3 6 -14 10 -23 10 -12
0 -6 -10 20 -35 28 -26 47 -35 73 -35 l35 0 0 -49 0 -49 -42 4 c-24 3 -69 12
-101 20 -32 8 -62 12 -68 9 -5 -4 -8 -2 -7 3 2 6 -12 21 -31 34 -54 36 -70 95
-71 258 l0 135 32 -39 c17 -21 45 -47 62 -57z m2709 -222 c-10 -28 -30 -59
-45 -70 -15 -11 -25 -24 -22 -28 3 -5 -1 -6 -8 -4 -8 3 -40 -4 -72 -15 -33
-11 -81 -20 -108 -20 l-48 0 0 45 c0 45 0 45 35 45 26 0 45 9 73 35 39 36 33
45 -12 21 -46 -24 -100 8 -93 54 5 30 75 81 121 87 35 4 36 4 36 -27 0 -17 -5
-41 -11 -53 -9 -16 -4 -14 17 8 21 22 29 41 30 73 2 37 8 49 60 100 l59 57 3
-129 c2 -105 -1 -140 -15 -179z m-2450 183 c-4 -16 -8 -18 -20 -9 -11 10 -11
14 -1 20 21 14 26 10 21 -11z m2147 6 c0 -2 -7 -9 -15 -16 -12 -10 -15 -10
-15 4 0 9 7 16 15 16 8 0 15 -2 15 -4z m-2082 -421 c17 -49 42 -116 57 -149
14 -32 24 -60 22 -62 -2 -2 -12 14 -22 36 -10 22 -22 37 -28 33 -6 -3 -7 -1
-4 4 4 6 -5 42 -19 79 -48 125 -73 285 -57 361 6 30 9 11 14 -87 6 -100 13
-143 37 -215z m2037 210 c-2 -38 -10 -95 -16 -125 -7 -30 -12 -65 -13 -77 0
-11 -4 -19 -8 -16 -5 2 -8 -3 -8 -11 0 -18 -81 -198 -87 -193 -2 2 12 41 31
85 60 139 78 216 84 347 4 89 7 112 14 90 4 -16 6 -61 3 -100z m-2862 29 c-14
-27 -35 -46 -78 -68 -36 -19 -66 -43 -76 -61 -10 -17 -24 -83 -32 -152 -18
-144 -50 -225 -108 -278 -37 -33 -68 -47 -54 -25 4 6 -6 7 -25 4 -16 -4 -30
-4 -30 0 0 3 15 27 34 54 51 70 76 172 76 307 0 150 14 173 110 188 20 3 18 5
-8 6 -18 0 -46 -6 -62 -14 -28 -15 -30 -14 -30 4 0 44 25 47 192 25 44 -6 50
-4 75 24 35 38 41 33 16 -14z m-804 -4 c-11 -47 -7 -65 33 -180 50 -142 45
-273 -14 -365 -26 -41 -143 -129 -159 -119 -23 14 -7 58 36 101 58 58 76 93
70 135 -4 26 -3 29 4 13 8 -17 10 -15 10 13 1 18 -3 31 -8 28 -5 -3 -11 3 -14
14 -4 14 0 20 11 21 10 0 3 7 -14 14 -66 29 -86 82 -60 154 l12 34 12 -40 c7
-23 19 -46 27 -53 20 -16 19 -12 -5 35 -33 65 -22 136 32 205 31 39 37 37 27
-10z m4441 30 c0 -5 12 -17 26 -26 23 -15 33 -16 110 -4 97 15 135 8 141 -28
3 -22 2 -22 -27 -7 -16 8 -46 14 -67 14 -33 -2 -34 -3 -8 -6 101 -12 115 -36
115 -194 0 -122 13 -186 55 -270 13 -25 31 -51 39 -58 25 -21 19 -32 -15 -26
-19 4 -28 2 -24 -5 13 -21 -15 -9 -49 21 -61 53 -94 137 -112 279 -9 73 -23
138 -33 155 -10 18 -40 42 -75 60 -42 22 -63 40 -77 68 -11 20 -15 37 -9 37 5
0 10 -4 10 -10z m840 -40 c40 -62 48 -121 26 -174 -19 -45 -19 -49 -6 -41 5 3
15 25 21 47 12 48 22 39 34 -29 9 -55 -15 -98 -65 -115 -22 -7 -29 -13 -19
-16 11 -2 15 -10 12 -22 -3 -11 -9 -17 -14 -14 -17 10 -9 -60 12 -103 11 -24
41 -63 65 -88 55 -57 62 -121 10 -93 -67 36 -127 93 -153 147 -25 50 -28 67
-27 151 0 80 5 109 31 180 41 114 45 133 34 180 -5 22 -5 40 -1 40 4 0 22 -23
40 -50z m-4799 -78 c-5 -10 -18 -25 -27 -33 -11 -9 -9 -2 6 19 26 35 36 42 21
14z m4299 -14 c15 -21 17 -28 6 -19 -16 13 -41 51 -33 51 2 0 14 -15 27 -32z
m-3465 -92 c17 -41 30 -50 15 -10 -13 32 -13 41 0 28 5 -5 11 -24 13 -43 2
-18 14 -42 25 -54 26 -25 28 -13 7 36 -8 20 -15 38 -15 41 0 2 24 -4 54 -14
29 -11 70 -20 90 -22 20 -1 36 -5 36 -8 1 -3 5 -24 9 -48 7 -33 5 -47 -6 -58
-24 -24 -69 -17 -108 17 -24 22 -35 26 -35 16 0 -19 68 -106 105 -136 22 -17
24 -21 10 -21 -10 0 -26 -7 -35 -15 -14 -13 -21 -12 -65 10 -26 14 -58 25 -69
25 -12 -1 4 -9 34 -20 37 -12 66 -31 89 -57 18 -21 28 -28 22 -16 -17 34 -13
52 13 59 62 15 140 -43 134 -100 -4 -37 -32 -45 -78 -22 -17 8 -30 11 -30 8 1
-19 32 -42 102 -75 43 -21 94 -54 114 -75 l36 -37 -88 -9 c-156 -15 -199 10
-265 153 -22 47 -58 109 -80 138 -22 29 -37 53 -34 53 3 0 -3 17 -14 39 -31
59 -61 188 -61 258 l0 64 30 -35 c17 -18 37 -50 45 -70z m2675 -56 c-6 -36
-23 -92 -36 -125 -14 -33 -26 -66 -28 -73 -1 -7 -18 -34 -38 -60 -20 -26 -57
-91 -82 -144 -63 -132 -81 -143 -233 -143 -62 0 -113 3 -113 6 0 10 54 65 85
85 17 12 56 31 88 44 50 19 77 42 77 65 0 3 -11 -2 -24 -10 -14 -9 -37 -15
-53 -13 -24 2 -29 8 -31 36 -4 42 39 88 92 98 52 9 75 -13 57 -53 -11 -24 -8
-23 21 10 22 25 52 45 88 58 49 18 51 19 15 14 -21 -4 -52 -16 -68 -27 -26
-19 -29 -19 -46 -4 -10 9 -25 16 -34 16 -10 0 1 16 31 44 44 41 102 126 86
126 -3 0 -22 -13 -41 -30 -18 -16 -45 -30 -59 -30 -37 0 -66 18 -60 38 2 9 7
34 11 55 3 21 11 37 18 35 19 -3 97 13 133 28 39 16 42 9 18 -37 -8 -17 -13
-33 -10 -37 10 -9 47 31 41 45 -2 8 -1 12 4 9 5 -3 17 11 26 32 10 20 30 51
44 67 l26 30 3 -44 c2 -25 -2 -75 -8 -111z m-2590 100 c18 -12 2 -12 -25 0
-13 6 -15 9 -5 9 8 0 22 -4 30 -9z m2470 6 c0 -2 -7 -7 -16 -10 -8 -3 -12 -2
-9 4 6 10 25 14 25 6z m41 -53 c-8 -15 -10 -15 -11 -2 0 17 10 32 18 25 2 -3
-1 -13 -7 -23z m-181 -3 c0 -5 -5 -10 -11 -10 -5 0 -7 5 -4 10 3 6 8 10 11 10
2 0 4 -4 4 -10z m-3790 -151 c16 -30 11 -72 -15 -125 -31 -62 -90 -122 -98
-101 -3 8 5 30 19 48 31 43 30 48 -3 18 l-26 -24 23 32 c13 18 28 29 33 26 6
-3 7 -1 3 5 -4 6 -1 33 7 59 16 54 17 57 17 78 0 19 27 9 40 -16z m5436 -110
c8 -17 11 -28 5 -25 -6 4 -11 2 -11 -3 0 -6 6 -11 14 -11 7 0 20 -8 27 -17 13
-16 12 -17 -3 -4 -23 17 -25 -3 -3 -25 8 -8 12 -21 8 -30 -5 -12 -11 -10 -35
13 -43 41 -77 103 -84 155 -5 39 -3 49 17 69 l23 23 13 -57 c7 -32 20 -71 29
-88z m-99 29 c-3 -7 -5 -2 -5 12 0 14 2 19 5 13 2 -7 2 -19 0 -25z m-1706 -5
c-12 -20 -14 -14 -5 12 4 9 9 14 11 11 3 -2 0 -13 -6 -23z m-3744 -224 c6 -66
-3 -89 -82 -184 -117 -143 -160 -286 -120 -392 17 -44 17 -47 0 -59 -24 -18
-33 -11 -61 50 -47 101 -23 307 49 416 17 25 51 70 77 100 63 73 90 119 90
151 0 78 39 11 47 -82z m858 84 c-43 -103 -159 -229 -251 -274 -95 -45 -219
-33 -246 26 -17 38 -4 40 39 7 42 -32 88 -48 98 -32 3 6 -4 10 -16 10 -35 0
-109 48 -109 71 0 15 -4 17 -17 10 -10 -5 -53 -13 -96 -19 -119 -15 -230 -79
-283 -164 -14 -22 -34 -78 -44 -125 -22 -99 -52 -145 -79 -118 -12 12 -16 36
-16 93 0 67 4 86 32 142 18 36 52 88 76 115 24 28 49 65 56 83 29 72 136 134
264 154 61 9 111 9 235 -1 118 -9 174 -10 226 -1 68 11 119 30 131 50 14 23
14 7 0 -27z m3950 -13 c48 -16 166 -18 330 -6 138 10 229 -1 310 -38 65 -29
119 -77 136 -118 7 -18 32 -55 56 -83 64 -73 106 -165 111 -239 10 -156 -63
-155 -97 1 -9 44 -29 100 -44 125 -53 90 -160 154 -284 170 -43 6 -86 14 -95
19 -21 11 -22 8 -7 -25 10 -20 9 -30 -4 -50 -35 -52 -151 -60 -243 -16 -69 33
-194 160 -233 237 -17 34 -31 65 -31 68 0 4 12 -2 28 -13 15 -11 45 -25 67
-32z m825 19 c0 -35 26 -84 73 -137 125 -141 162 -231 162 -397 0 -95 -3 -116
-23 -152 -14 -28 -29 -43 -42 -43 -29 0 -33 16 -15 65 38 98 1 232 -99 360
-113 144 -125 184 -90 288 16 46 34 55 34 16z m-3770 -69 c0 -5 -10 -10 -22
-9 -22 0 -22 1 -3 9 11 5 21 9 23 9 1 1 2 -3 2 -9z m1888 1 c10 -6 7 -10 -11
-13 -18 -4 -24 -1 -20 9 6 15 13 16 31 4z m-105 -16 c-3 -9 -8 -14 -10 -11 -3
3 -2 9 2 15 9 16 15 13 8 -4z m647 -167 c-12 -24 -31 -53 -42 -65 -11 -12 -17
-26 -13 -33 4 -6 1 -9 -7 -8 -7 2 -12 -5 -12 -14 1 -9 -4 -14 -10 -12 -7 3
-25 -9 -41 -26 -16 -16 -25 -30 -21 -30 4 0 -2 -10 -14 -22 -11 -12 -25 -37
-32 -55 -13 -37 -33 -46 -23 -10 16 52 65 125 127 191 37 39 75 85 85 103 26
48 29 31 3 -19z m-2970 -17 c18 -24 54 -64 79 -90 44 -45 91 -120 106 -168 5
-17 2 -23 -9 -23 -10 0 -13 6 -9 17 5 12 3 14 -7 8 -8 -5 -11 -4 -6 3 10 16
-26 84 -42 77 -7 -3 -10 0 -7 6 9 13 -14 41 -28 32 -5 -3 -7 -1 -4 4 4 6 -3
19 -14 29 -31 28 -87 107 -99 140 -12 32 -9 29 40 -35z m410 39 c51 -16 73
-30 103 -63 l38 -42 -21 37 c-12 20 -17 38 -13 41 15 9 112 -11 144 -30 28
-17 69 -77 69 -103 0 -17 -67 -41 -95 -34 -14 3 -36 19 -49 35 -28 33 -46 21
-22 -15 45 -69 114 -117 189 -131 85 -16 12 -37 -77 -22 -116 20 -186 78 -253
210 -24 49 -56 100 -70 113 -31 29 -26 29 57 4z m2177 -4 c-14 -13 -46 -64
-70 -113 -68 -134 -140 -193 -258 -212 -87 -15 -155 8 -72 24 43 8 98 34 131
63 l23 21 -59 -2 c-37 -1 -65 3 -75 12 -25 20 -10 32 21 15 35 -18 85 -18 121
1 32 16 47 43 32 58 -5 5 -11 1 -15 -11 -11 -32 -66 -53 -109 -41 -20 5 -39
14 -43 20 -12 20 28 88 65 110 35 21 128 42 144 32 4 -3 -1 -21 -13 -41 l-20
-37 34 39 c33 38 121 82 170 85 16 1 15 -2 -7 -23z m-3010 -236 c-7 -104 -39
-183 -98 -242 -26 -26 -56 -48 -66 -48 -13 0 -10 5 12 20 34 23 31 25 -14 9
-26 -9 -35 -8 -49 4 -9 8 -28 20 -40 27 l-24 12 21 -29 c27 -36 30 -122 6
-213 -29 -114 -95 -208 -188 -271 -62 -41 -92 -47 -121 -26 -16 11 -14 15 21
34 21 12 49 34 63 49 14 15 18 23 10 19 -8 -5 -2 6 13 24 50 60 67 106 77 211
10 101 27 158 58 194 9 11 11 16 4 12 -8 -5 -22 -22 -33 -40 -25 -40 -25 -26
0 22 26 51 67 87 163 147 93 57 142 114 160 183 l12 47 9 -35 c5 -19 7 -69 4
-110z m3860 2 c17 -20 66 -59 110 -87 45 -27 91 -59 104 -70 25 -23 79 -104
79 -119 0 -6 -9 3 -19 20 -11 18 -25 35 -32 40 -7 4 -4 -6 8 -22 29 -41 53
-117 53 -169 0 -71 19 -139 53 -192 17 -26 30 -51 29 -55 -1 -5 3 -7 10 -5 7
1 12 -5 13 -13 0 -8 22 -29 48 -47 44 -29 46 -33 28 -42 -31 -17 -58 -13 -104
16 -97 60 -168 159 -198 275 -27 101 -25 187 4 224 l22 29 -49 -29 c-41 -24
-52 -27 -73 -17 -14 7 -28 9 -31 7 -2 -3 7 -11 22 -17 14 -7 26 -16 26 -21 0
-17 -86 51 -113 89 -52 76 -78 198 -62 299 l7 49 18 -53 c10 -29 31 -70 47
-90z m-3150 -8 c77 -52 145 -122 173 -180 28 -59 33 -153 10 -199 -13 -26 -28
-37 -90 -65 -9 -4 -16 -23 -18 -46 -2 -32 3 -46 29 -78 55 -66 134 -84 198
-45 32 19 34 19 47 2 55 -73 -49 -134 -170 -99 -97 28 -157 94 -190 205 -22
76 -21 136 5 178 17 27 20 44 15 80 -8 57 -90 255 -116 278 -57 51 13 30 107
-31z m451 39 c-18 -17 -78 -28 -112 -19 -40 10 -31 22 13 18 22 -2 51 3 67 11
33 17 53 11 32 -10z m2020 -11 c-13 -16 -44 -76 -67 -133 -49 -118 -59 -193
-28 -226 24 -27 22 -104 -4 -189 -39 -129 -166 -217 -286 -199 -72 11 -104 61
-68 109 14 19 16 19 34 2 26 -23 90 -31 134 -17 50 17 107 82 107 124 0 42
-12 58 -51 71 -53 18 -74 56 -74 134 1 99 50 185 148 261 56 43 167 104 175
97 2 -3 -7 -18 -20 -34z m-4107 -168 c0 -80 -12 -117 -70 -208 -57 -91 -83
-169 -82 -246 0 -70 22 -156 38 -153 5 1 9 -8 8 -20 -1 -15 -20 -35 -56 -59
-30 -21 -57 -38 -61 -38 -8 0 -34 80 -44 132 -12 69 15 245 53 343 33 87 94
193 138 245 12 14 31 46 41 72 17 42 20 45 27 25 4 -12 8 -54 8 -93z m5715 -6
c34 -39 102 -151 119 -198 10 -25 25 -68 35 -95 26 -69 54 -333 41 -377 -8
-28 -9 -24 -6 27 3 33 2 51 -1 40 -13 -49 -36 -115 -40 -115 -7 0 -87 51 -106
67 -16 14 -16 18 4 57 30 58 37 185 13 257 -19 56 -43 104 -76 151 -43 61 -59
111 -59 195 0 113 8 128 34 64 12 -27 31 -61 42 -73z m-3748 58 c60 -18 62
-20 62 -53 0 -39 10 -61 53 -118 l31 -40 -33 30 c-25 24 -31 26 -25 10 4 -11
13 -29 21 -40 16 -23 92 -67 105 -59 4 3 8 -1 8 -9 0 -30 -63 -36 -117 -11
-43 21 -75 68 -109 159 -15 38 -40 89 -56 113 -15 24 -23 42 -16 40 7 -2 41
-12 76 -22z m1768 -11 c-15 -19 -38 -65 -52 -102 -40 -107 -70 -151 -118 -175
-32 -15 -53 -19 -80 -14 -20 4 -36 11 -36 15 0 4 18 16 41 26 38 18 99 78 99
99 0 5 -14 -3 -32 -20 l-32 -29 31 40 c43 57 53 79 53 117 0 32 3 34 63 55 88
30 94 29 63 -12z m-4015 -85 c6 -30 22 -72 36 -93 30 -47 26 -57 -9 -19 -35
37 -48 83 -47 161 1 36 4 53 5 36 2 -16 9 -55 15 -85z m2365 58 c-9 -12 -16
-36 -17 -53 l-1 -30 -13 30 c-7 16 -11 36 -10 45 2 8 4 18 4 23 1 4 13 7 27 7
24 0 24 -1 10 -22z m1509 3 c3 -11 -1 -34 -10 -53 -8 -18 -13 -26 -11 -17 3
10 -4 33 -15 53 l-19 36 24 0 c15 0 27 -7 31 -19z m2335 -108 c-10 -35 -56
-100 -65 -91 -2 2 9 30 25 62 16 32 33 81 37 109 l8 52 3 -47 c2 -26 -2 -64
-8 -85z m-3764 80 c3 -16 8 -35 10 -45 7 -24 -7 -28 -44 -13 -36 16 -39 30
-16 63 21 30 42 28 50 -5z m1340 19 c11 -7 34 -45 34 -56 0 -7 -56 -36 -70
-36 -13 0 -13 15 1 63 10 38 16 42 35 29z m-3405 -107 c-16 -14 -43 -52 -58
-83 -25 -50 -28 -68 -28 -147 1 -64 6 -105 19 -140 l19 -48 -36 -34 c-51 -46
-83 -44 -104 4 -8 21 -18 72 -20 114 -6 79 5 133 37 179 9 14 15 30 13 36 -6
18 79 106 122 125 57 26 72 23 36 -6z m2010 8 c13 -16 12 -17 -3 -4 -17 13
-22 21 -14 21 2 0 10 -8 17 -17z m3480 -9 c43 -21 110 -103 97 -116 -2 -2 7
-17 19 -34 46 -65 56 -210 19 -298 -20 -47 -53 -48 -103 -3 l-36 34 19 48 c13
35 18 76 18 140 1 102 -17 154 -75 219 -32 37 -32 38 -9 31 14 -4 37 -13 51
-21z m-3404 -30 c-3 -3 -12 -4 -19 -1 -8 3 -5 6 6 6 11 1 17 -2 13 -5z m1290
0 c-3 -3 -12 -4 -19 -1 -8 3 -5 6 6 6 11 1 17 -2 13 -5z m-2675 -121 c35 -72
34 -125 -3 -155 -26 -22 -33 -22 -55 -1 -15 16 -16 15 -10 -13 17 -76 -112
-210 -227 -238 -49 -12 -49 5 0 41 105 78 173 176 209 299 16 55 15 122 -2
169 -16 45 58 -42 88 -102z m2070 71 c38 -36 49 -56 59 -100 13 -59 14 -53
-41 -207 -11 -31 -23 -92 -27 -135 -3 -42 -13 -87 -21 -100 l-15 -23 -22 21
c-18 17 -24 37 -29 102 -4 44 -15 104 -25 132 -10 28 -26 73 -36 101 -16 42
-17 57 -7 104 10 44 21 64 59 103 26 26 50 48 53 48 3 0 26 -21 52 -46z m2045
-11 c-14 -66 2 -141 49 -230 50 -94 71 -119 147 -178 67 -53 74 -72 20 -59
-46 11 -101 42 -144 81 -41 37 -108 153 -89 153 5 0 10 4 10 10 0 6 -9 6 -24
0 -34 -12 -65 14 -72 62 -5 26 0 50 18 90 22 47 86 134 93 126 2 -2 -2 -26 -8
-55z m-4637 -166 c29 -52 32 -65 28 -118 -6 -78 -34 -111 -93 -107 -33 2 -41
7 -43 26 -2 12 -7 22 -12 22 -9 0 -23 -39 -20 -55 1 -5 -1 -7 -5 -3 -12 12
-94 -95 -133 -172 -34 -69 -37 -83 -39 -169 -2 -94 -2 -95 -38 -130 l-36 -36
-19 25 c-63 83 -45 269 36 375 33 44 24 45 -17 3 -81 -85 -113 -187 -107 -332
5 -98 5 -100 -10 -61 -8 22 -15 76 -16 120 -1 72 2 87 35 155 42 87 101 157
179 210 30 21 67 51 82 66 39 42 102 168 128 254 l22 74 22 -44 c13 -25 38
-71 56 -103z m1751 127 c7 -8 34 -26 59 -39 84 -42 91 -75 25 -112 -32 -18
-35 -23 -18 -23 12 0 24 -4 27 -9 10 -15 -13 -62 -50 -108 -35 -43 -59 -57
-48 -28 6 14 -12 59 -38 97 -9 12 -9 26 1 58 12 41 13 42 27 21 8 -11 24 -21
35 -21 19 0 19 1 -2 29 -21 29 -53 151 -39 151 4 0 13 -7 21 -16z m654 -49
c-6 -61 -4 -73 29 -154 20 -49 39 -109 42 -134 9 -64 -4 -177 -21 -177 -20 0
-44 60 -55 139 -11 77 -35 134 -69 165 -12 11 -21 27 -21 36 0 36 32 109 60
135 17 16 30 35 30 42 0 7 3 13 6 13 4 0 3 -29 -1 -65z m944 23 c-4 -24 -8
-48 -9 -54 0 -6 -11 -28 -25 -48 -23 -34 -23 -36 -5 -36 10 0 25 9 33 21 14
20 15 19 26 -12 16 -45 14 -54 -15 -100 -14 -23 -24 -50 -21 -60 3 -11 4 -19
2 -19 -11 0 -67 63 -84 95 -29 56 -27 68 9 63 17 -3 30 -3 30 -1 0 1 -17 11
-38 22 -58 30 -69 47 -46 72 11 12 40 32 65 44 25 13 51 31 58 39 22 27 29 18
20 -26z m1832 -30 c25 -85 89 -210 127 -251 15 -16 54 -48 87 -72 81 -58 128
-113 173 -204 34 -68 37 -82 37 -155 -1 -50 -7 -94 -16 -116 -15 -33 -15 -31
-11 62 5 110 -18 207 -63 268 -55 74 -68 90 -77 90 -5 0 3 -15 17 -34 79 -103
97 -295 35 -376 l-19 -25 -37 37 c-37 36 -37 37 -35 111 3 112 -31 203 -109
293 -61 70 -76 89 -85 109 -8 20 -8 20 -13 0 -6 -26 -20 -35 -59 -35 -83 0
-110 116 -52 226 17 32 41 78 52 102 11 23 22 42 24 42 1 0 12 -33 24 -72z
m-2426 -58 c19 -54 19 -74 -1 -90 -33 -28 -64 -98 -74 -167 -11 -78 -36 -143
-56 -143 -16 0 -29 115 -20 177 3 25 22 86 42 135 32 81 35 95 29 150 l-7 61
36 -40 c20 -22 43 -60 51 -83z m-435 -118 c22 -22 42 -54 48 -77 13 -48 20
-205 10 -205 -4 0 -23 14 -42 30 -40 36 -52 67 -61 165 -4 39 -13 82 -21 98
-14 25 -13 27 7 27 12 0 38 -17 59 -38z m506 11 c-8 -16 -17 -59 -21 -98 -9
-98 -21 -129 -61 -165 -19 -16 -38 -30 -42 -30 -10 0 -3 157 10 205 12 46 76
115 107 115 20 0 21 -2 7 -27z m1564 -87 c-1 -12 -7 -39 -15 -61 -21 -59 -18
-89 15 -159 49 -102 43 -185 -24 -294 -42 -69 -116 -145 -116 -119 0 9 0 18
-1 20 0 1 -7 31 -14 67 -13 62 -13 66 8 88 16 17 22 39 25 90 4 50 10 74 28
98 20 26 24 42 24 107 0 62 5 85 26 124 15 29 23 58 21 73 -5 23 -4 24 9 5 8
-10 14 -28 14 -39z m-3651 -49 c17 -27 21 -50 21 -111 0 -66 4 -82 25 -114 19
-27 25 -50 25 -88 0 -38 6 -61 24 -87 23 -34 24 -37 11 -98 -8 -35 -14 -65
-14 -66 -1 -2 -1 -11 -1 -20 0 -43 -128 118 -156 195 -24 67 -18 150 16 217
34 68 36 94 14 156 -10 29 -13 56 -8 79 l7 35 7 -31 c4 -18 17 -47 29 -67z
m713 -11 c7 4 8 2 4 -5 -9 -13 -26 -5 -25 12 0 9 2 8 6 -1 2 -6 10 -9 15 -6z
m4009 -9 c-10 -9 -11 -8 -5 6 3 10 9 15 12 12 3 -3 0 -11 -7 -18z m-2156 3
c-6 -10 9 -15 30 -10 6 1 7 -2 2 -6 -4 -4 11 -16 33 -26 44 -20 133 -28 190
-16 l35 8 -30 -15 c-62 -30 -177 -11 -253 40 -22 15 -29 25 -20 28 19 8 20 8
13 -3z m-3858 -47 c-3 -10 -5 -2 -5 17 0 19 2 27 5 18 2 -10 2 -26 0 -35z
m2353 42 c0 -3 -28 -19 -62 -36 -77 -39 -165 -49 -218 -25 l-35 16 35 -8 c71
-15 219 6 205 28 -3 6 0 7 7 5 8 -3 22 1 33 9 20 16 35 20 35 11z m-1730 -19
c19 -8 64 -27 100 -42 53 -22 79 -27 141 -27 49 1 87 7 107 17 17 9 33 16 37
16 10 0 5 -51 -8 -83 -37 -88 -226 -187 -270 -142 -9 8 -19 15 -23 15 -4 0
-21 12 -36 27 -29 28 -35 52 -18 83 9 17 5 19 -44 25 -125 16 -181 -20 -250
-158 -39 -80 -71 -111 -88 -86 -5 8 -7 48 -5 89 3 63 8 84 36 130 18 30 51 69
72 85 22 17 45 35 52 41 7 6 19 13 27 17 28 11 135 6 170 -7z m5139 -15 c55
-35 99 -81 131 -136 20 -33 24 -54 25 -122 0 -45 -3 -84 -7 -88 -15 -15 -47
19 -83 87 -53 102 -80 134 -126 152 -42 17 -81 20 -141 10 -32 -6 -36 -9 -28
-25 6 -10 10 -26 10 -36 0 -25 -47 -70 -82 -78 -16 -4 -25 -11 -22 -16 7 -12
-2 -11 -63 5 -114 30 -203 119 -203 202 0 28 2 29 42 8 39 -20 169 -21 223 0
22 8 67 26 100 40 87 37 163 36 224 -3z m-3609 5 c0 -2 -7 -6 -15 -10 -8 -3
-15 -1 -15 4 0 6 7 10 15 10 8 0 15 -2 15 -4z m-2125 -113 c7 -24 10 -41 5
-38 -8 5 -31 87 -29 107 1 7 4 4 6 -7 3 -11 11 -39 18 -62z m6143 5 c-16 -49
-27 -56 -15 -9 6 23 14 41 19 41 4 0 2 -15 -4 -32z m-6181 -79 c19 -21 23 -32
17 -55 -11 -45 -13 -46 -47 -22 l-32 22 20 -24 20 -23 -22 12 c-13 6 -23 13
-23 16 0 2 -3 11 -7 21 -5 13 -3 15 8 9 11 -7 12 -6 2 6 -16 20 -26 84 -19
115 l7 26 25 -39 c15 -21 37 -50 51 -64z m6288 58 c-13 -109 -18 -127 -38
-144 -11 -10 -17 -12 -13 -5 9 15 -6 16 -22 0 -9 -9 -12 -8 -16 3 -16 53 -14
62 30 115 24 30 44 59 44 65 0 6 4 8 9 4 5 -3 8 -20 6 -38z m-3849 4 c8 -5 84
-113 86 -122 2 -11 -67 -13 -366 -10 -203 1 -380 7 -393 12 -15 5 -23 17 -23
31 0 13 -3 40 -7 61 l-6 39 354 -5 c195 -3 355 -6 355 -6z m2028 -48 c-3 -32
-8 -61 -10 -65 -3 -4 -23 -9 -47 -12 -47 -7 -737 -13 -737 -7 0 2 20 32 45 67
l45 63 83 3 c45 2 205 4 355 6 l273 2 -7 -57z m-1570 13 c18 -35 54 -74 68
-76 18 -1 128 -131 128 -150 0 -30 17 -24 23 8 3 16 27 48 56 75 28 26 51 51
51 55 0 4 10 12 22 17 12 6 36 31 52 57 l31 47 67 0 c37 1 69 -2 71 -6 3 -5
-2 -30 -10 -56 -17 -58 -78 -123 -140 -151 -42 -18 -43 -18 -60 0 -10 11 -15
15 -10 10 25 -33 -3 -101 -78 -191 -32 -39 -60 -72 -61 -74 -2 -2 -18 14 -36
34 -102 116 -134 184 -109 229 10 17 8 16 -9 -3 l-20 -24 -43 19 c-62 28 -123
93 -140 151 -8 26 -13 51 -10 56 2 4 34 7 71 7 67 0 68 0 86 -34z m-2920 -151
c-8 -19 14 -75 29 -75 6 0 7 -3 4 -7 -12 -11 -57 39 -57 63 0 19 5 25 27 33 1
1 0 -6 -3 -14z m6276 -15 c0 -20 -37 -70 -51 -70 -5 0 0 10 11 23 14 14 20 31
18 48 -3 19 0 25 9 22 7 -3 13 -13 13 -23z m-4766 -4 c3 -14 28 -54 56 -90 76
-100 90 -126 90 -176 0 -74 -59 -144 -105 -126 -13 5 -16 16 -13 46 2 24 0 36
-6 30 -32 -32 11 -171 74 -243 31 -36 32 -38 14 -52 -11 -8 -25 -15 -32 -15
-24 0 -112 92 -138 147 l-27 54 23 24 c25 26 29 80 11 128 -15 39 -16 164 -1
217 22 81 42 102 54 56z m3279 -37 c21 -59 25 -188 7 -234 -17 -44 -12 -100
11 -129 14 -18 18 -33 13 -48 -17 -55 -108 -160 -149 -171 -11 -4 -28 0 -39 8
-18 14 -17 16 14 52 46 52 82 134 82 189 0 26 -4 50 -9 55 -5 5 -7 -9 -5 -31
3 -30 0 -41 -13 -46 -45 -18 -105 52 -105 121 0 50 20 89 88 178 28 37 55 79
58 93 9 37 26 24 47 -37z m-4376 21 c-108 -72 -169 -176 -169 -288 0 -114 29
-186 94 -235 65 -49 151 -53 192 -9 22 25 67 140 56 147 -4 3 -13 -2 -20 -10
-7 -8 -29 -15 -50 -15 -30 0 -39 5 -48 25 -21 46 -9 111 30 167 23 33 145 95
213 107 28 5 58 13 69 17 29 11 11 -36 -27 -68 l-32 -27 -6 -143 c-8 -169 -22
-217 -86 -288 -65 -72 -114 -85 -220 -59 -165 41 -240 132 -250 302 -9 144 35
245 146 332 44 34 119 73 145 74 5 1 -11 -13 -37 -29z m5466 -2 c72 -38 157
-120 189 -181 19 -36 22 -58 22 -157 1 -110 -1 -118 -33 -183 -27 -55 -43 -75
-84 -102 -56 -37 -147 -65 -210 -65 -54 0 -101 25 -147 77 -58 66 -72 116 -79
281 l-6 143 -32 27 c-34 29 -49 69 -23 64 8 -2 39 -8 70 -14 60 -10 127 -39
177 -76 54 -40 86 -137 62 -194 -10 -24 -17 -28 -49 -28 -21 0 -43 7 -50 15
-20 24 -31 6 -15 -25 8 -16 15 -35 15 -42 0 -7 11 -30 25 -50 45 -66 133 -69
209 -6 48 39 74 92 85 171 20 141 -33 249 -175 354 -43 32 -21 28 49 -9z
m-3364 -40 c29 -14 65 -23 96 -23 38 0 64 -8 106 -33 31 -17 73 -35 95 -40 32
-6 40 -13 42 -33 l3 -26 -298 -14 c-418 -20 -468 -19 -522 10 -24 12 -55 35
-68 49 -22 24 -73 112 -73 127 0 3 129 5 287 5 277 0 288 -1 332 -22z m1841
16 c0 -3 -14 -33 -31 -65 -36 -67 -81 -105 -148 -126 -48 -15 -77 -15 -476 7
-99 5 -208 10 -243 10 -63 0 -63 0 -60 27 2 23 9 29 42 35 35 8 101 38 135 62
7 6 39 11 70 11 40 1 67 7 91 22 34 20 47 21 328 22 160 1 292 -2 292 -5z
m-2995 -164 c60 -42 95 -92 95 -134 -1 -60 -55 -93 -63 -38 l-4 27 -1 -30 c-4
-66 87 -208 162 -254 29 -18 31 -24 28 -60 -3 -25 -9 -41 -17 -41 -24 0 -136
92 -186 154 -88 108 -134 226 -146 378 -8 108 -2 118 45 71 20 -21 60 -54 87
-73z m3665 45 c0 -212 -105 -417 -280 -544 -57 -41 -67 -40 -72 10 -3 36 -1
42 28 60 75 46 166 188 162 254 l-1 30 -4 -27 c-8 -55 -62 -22 -63 38 0 44 45
102 129 163 40 29 75 59 78 67 9 25 23 -5 23 -51z m-4967 -46 c3 -47 12 -103
21 -125 l16 -39 -30 32 c-33 37 -53 99 -44 140 7 33 26 85 29 81 1 -2 5 -42 8
-89z m6170 -14 c0 -54 -18 -98 -52 -129 l-21 -19 16 39 c9 21 19 79 22 128 5
86 5 88 20 60 8 -15 15 -51 15 -79z m-3216 -171 c34 -24 65 -49 69 -55 5 -8
-60 -9 -227 -4 -129 3 -310 7 -404 8 -159 2 -173 1 -216 -21 -55 -27 -141
-111 -166 -161 -26 -53 -22 -125 10 -188 52 -102 36 -119 -120 -125 -62 -3
-113 -3 -113 0 0 3 10 16 21 29 18 18 23 41 30 119 10 113 21 151 64 219 56
88 140 144 200 133 19 -4 24 0 29 24 3 15 12 38 20 50 l15 23 363 -3 363 -4
62 -44z m1029 32 c7 -11 16 -34 20 -52 4 -24 10 -31 23 -27 33 8 102 -18 141
-53 85 -77 130 -187 130 -315 0 -57 4 -72 25 -97 31 -37 31 -38 -2 -36 -16 1
-67 2 -115 3 -82 1 -89 3 -104 27 -17 24 -16 28 5 77 39 89 45 122 31 174 -17
58 -111 161 -178 194 -45 23 -56 24 -227 22 -99 -1 -281 -5 -405 -8 l-225 -6
32 28 c18 15 47 39 65 53 l32 25 291 5 c452 8 444 8 461 -14z m-2377 -296 c0
-97 52 -191 135 -245 l28 -18 -24 -13 c-12 -7 -33 -13 -45 -14 -27 0 -29 -9
-7 -36 15 -18 15 -18 9 3 l-6 23 1371 0 1371 0 -6 -21 c-5 -13 -3 -19 3 -15 5
3 12 14 15 25 4 15 -2 20 -34 25 -51 8 -56 20 -17 45 75 46 129 148 129 242 1
60 1 60 22 46 73 -47 68 -166 -13 -282 -38 -53 -100 -118 -107 -111 -4 3 -13
0 -22 -8 -23 -21 -446 -29 -1381 -29 -912 0 -1278 8 -1301 29 -9 8 -18 11 -22
8 -9 -9 -73 61 -117 129 -69 104 -74 209 -13 257 14 11 27 20 29 20 1 0 3 -27
3 -60z m-187 -65 c16 -14 25 -25 19 -25 -13 0 -111 96 -111 110 0 6 14 -5 31
-25 17 -19 44 -46 61 -60z m3382 73 c-32 -39 -58 -64 -89 -84 -17 -10 -1 9 35
43 68 65 86 79 54 41z m-4376 -111 c29 -23 32 -44 12 -83 -11 -21 -20 -47 -19
-59 0 -12 6 -5 15 20 22 60 52 87 93 83 74 -6 99 -108 51 -213 -32 -73 -29
-131 10 -200 l32 -57 -65 65 c-36 36 -77 73 -92 83 -46 30 -67 88 -75 200 -4
74 -12 111 -27 141 l-22 42 37 -6 c20 -3 43 -10 50 -16z m5349 -19 c-17 -33
-23 -67 -28 -143 -7 -117 -27 -166 -86 -210 -21 -16 -63 -54 -93 -84 l-54 -56
33 60 c41 72 42 110 5 215 -18 54 -24 83 -19 111 20 118 133 120 167 3 7 -23
13 -32 15 -22 2 9 -3 33 -11 53 -32 75 -11 103 81 114 8 1 5 -14 -10 -41z
m-4591 -169 c80 -23 123 -64 148 -137 30 -88 22 -101 -53 -86 -24 5 -31 12
-31 30 0 28 -48 140 -56 131 -3 -3 -1 -15 6 -26 10 -20 9 -21 -24 -16 -20 2
-44 9 -55 14 -26 14 -44 67 -30 92 12 24 12 24 95 -2z m4044 -164 c164 -133
154 -119 134 -200 -19 -73 -55 -118 -122 -151 -45 -22 -127 -24 -148 -3 -8 8
-19 44 -25 80 -7 35 -13 65 -14 67 -2 2 -22 -2 -45 -8 -52 -14 -100 1 -100 32
0 32 31 132 47 150 8 9 37 26 64 37 42 19 49 26 49 50 0 64 24 56 160 -54z
m-3245 56 c22 -10 102 -59 178 -109 189 -124 400 -230 491 -247 47 -9 86 24
86 74 0 20 -6 44 -12 52 -20 24 -68 51 -95 54 -49 5 -58 61 -17 94 40 31 101
28 150 -8 54 -39 80 -70 99 -113 59 -144 -68 -259 -272 -246 -69 5 -87 11
-246 91 -95 47 -234 128 -310 179 -77 51 -160 107 -187 123 -26 17 -60 40 -76
52 l-29 22 100 0 c76 1 110 -4 140 -18z m2381 -4 c-16 -12 -71 -49 -122 -82
-51 -33 -134 -89 -186 -123 -51 -35 -171 -102 -265 -149 -160 -80 -178 -86
-246 -91 -208 -13 -335 107 -268 253 20 44 87 110 127 125 94 36 187 -39 123
-99 -12 -11 -28 -17 -35 -14 -8 3 -32 -7 -54 -21 -37 -24 -40 -30 -40 -70 0
-74 43 -98 125 -71 95 32 311 144 435 226 209 139 208 139 330 139 l105 -1
-29 -22z m-3197 -99 c47 -45 88 -85 89 -90 2 -5 -49 -65 -113 -133 -131 -140
-129 -139 -237 -109 -37 11 -69 28 -88 47 -43 44 -75 118 -71 164 1 17 47 11
89 -11 24 -12 32 -23 32 -44 0 -15 12 -44 26 -65 22 -33 28 -36 41 -25 30 24
183 182 183 188 0 3 -34 39 -75 80 -40 40 -71 78 -68 83 3 5 28 6 56 3 46 -7
58 -15 136 -88z m3698 -162 c15 -18 68 -77 117 -130 l89 -97 -12 -54 c-8 -35
-18 -55 -26 -55 -8 0 -49 41 -92 90 -42 50 -81 90 -85 90 -13 0 -71 -30 -90
-47 -16 -14 -13 -21 39 -89 58 -78 78 -87 108 -54 10 11 27 20 37 20 20 0 20
-7 -3 -67 -16 -44 -104 -77 -146 -55 -11 6 -48 50 -82 97 l-63 86 19 51 c15
44 27 57 76 89 32 21 54 40 49 43 -5 3 -42 -19 -82 -49 -41 -30 -79 -55 -87
-55 -9 0 -13 13 -13 39 0 38 4 42 92 110 51 39 100 71 109 71 10 0 30 -15 46
-34z m-3503 -17 c14 -17 26 -39 26 -49 0 -11 -30 -43 -73 -78 -128 -105 -129
-120 -2 -36 77 52 90 57 142 58 l58 1 12 -38 c15 -46 16 -43 -82 -185 -38 -56
-80 -106 -93 -111 -28 -13 -122 -15 -122 -2 0 5 19 35 43 67 23 33 60 84 82
114 22 30 33 50 25 45 -8 -5 -51 -33 -95 -63 l-80 -54 -73 5 c-40 2 -75 7 -79
11 -10 9 24 110 47 138 10 14 55 49 99 78 45 29 81 56 81 60 0 3 -11 17 -25
30 -32 30 -24 40 35 40 42 0 52 -4 74 -31z m3246 -321 c51 -79 95 -145 97
-147 2 -3 9 1 15 7 14 14 48 16 48 2 0 -5 -8 -25 -17 -45 -22 -47 -79 -67
-118 -41 -14 9 -25 21 -25 26 0 5 -36 68 -80 139 l-80 130 17 35 c9 20 24 36
33 36 10 0 53 -55 110 -142z m-2851 57 c16 -14 33 -35 36 -46 6 -18 12 -20 46
-14 21 4 39 4 39 1 0 -4 -34 -74 -75 -156 -84 -167 -87 -170 -181 -170 -86 0
-167 53 -196 129 -18 48 -3 70 78 107 l75 35 -26 30 c-27 32 -33 77 -13 97 7
7 45 12 99 12 79 0 90 -2 118 -25z m2630 -22 c12 -10 55 -76 95 -147 l75 -129
-16 -41 c-9 -23 -20 -45 -25 -51 -13 -14 -47 31 -88 116 -19 38 -36 69 -39 69
-3 0 -14 -14 -24 -32 l-18 -31 -35 34 c-28 27 -37 31 -44 20 -10 -17 -4 -34
45 -130 l35 -71 -25 -40 c-14 -22 -31 -40 -38 -40 -7 0 -35 49 -61 110 -36 82
-54 113 -73 122 -44 22 -49 40 -29 105 l18 60 92 46 c101 51 124 55 155 30z
m-415 -12 c14 -12 14 -16 0 -43 -11 -22 -20 -28 -32 -23 -39 17 -106 26 -138
21 -42 -8 -45 -26 -4 -26 36 0 37 -6 8 -37 -27 -29 -71 -30 -98 -3 -25 25 -18
41 41 95 l42 37 83 -4 c46 -2 89 -10 98 -17z m-1610 -54 c-8 -22 16 -33 114
-53 51 -10 91 -22 89 -27 -1 -5 -19 -19 -39 -30 -35 -21 -37 -21 -123 -4 -48
9 -96 24 -107 34 -26 23 -20 64 12 80 33 17 61 17 54 0z m-324 -38 c30 -11 59
-24 63 -28 7 -7 -21 -87 -102 -291 -18 -48 -40 -64 -103 -75 -26 -5 -38 -4
-38 4 0 6 25 71 56 144 31 72 60 142 65 155 8 22 5 25 -41 45 -27 11 -50 25
-50 29 0 10 58 37 80 38 8 0 40 -9 70 -21z m2044 -163 c36 -91 45 -125 38
-140 -8 -19 -5 -22 31 -31 22 -5 42 -14 44 -20 1 -5 -6 -25 -17 -43 -20 -32
-22 -32 -70 -26 -67 9 -94 0 -144 -46 -39 -36 -46 -39 -73 -30 -45 16 -63 57
-73 172 -5 57 -9 116 -10 131 0 28 -1 29 -40 22 -45 -8 -49 -1 -25 45 14 26
21 30 60 30 59 0 67 -15 95 -167 12 -67 28 -130 35 -139 12 -16 16 -15 56 16
24 18 48 37 52 41 5 4 -10 57 -32 118 -23 61 -41 118 -41 127 0 9 10 32 21 51
28 45 34 39 93 -111z m-1736 61 c50 -13 95 -26 98 -29 3 -3 -9 -66 -26 -139
-51 -220 -44 -206 -101 -234 -27 -14 -54 -23 -59 -20 -4 3 5 54 21 113 16 59
29 113 29 119 0 14 -70 53 -94 53 -9 0 -24 -28 -40 -80 -14 -43 -26 -83 -26
-88 0 -5 21 -18 47 -29 l47 -19 -36 -17 c-47 -22 -86 -21 -125 3 -48 29 -49
53 -10 166 28 82 39 101 62 113 46 23 110 25 156 7 23 -9 44 -14 47 -11 9 8 1
11 -87 36 -47 14 -86 29 -88 36 -5 14 43 42 72 43 11 0 62 -11 113 -23z m1327
-51 c13 -9 30 -59 56 -167 l38 -154 -26 -38 c-48 -69 -51 -66 -77 66 -11 50
-22 95 -26 100 -3 4 -15 -2 -25 -13 -26 -28 -38 -25 -59 15 -39 71 -51 33 -30
-92 l16 -95 -35 -35 c-19 -20 -39 -33 -45 -29 -5 3 -15 56 -23 118 -11 98 -16
116 -41 144 -15 17 -28 37 -28 43 0 6 16 35 35 65 l34 54 78 15 c101 19 135
20 158 3z m-1018 -21 c21 -9 45 -23 55 -31 15 -15 19 -15 40 0 43 31 45 24 31
-126 -20 -222 -14 -205 -91 -239 -51 -23 -75 -29 -101 -24 -78 15 -151 72
-151 119 0 13 22 44 55 76 30 30 55 57 55 60 0 3 -14 11 -30 17 -31 12 -62 65
-53 89 3 10 131 71 151 74 1 0 19 -7 39 -15z m278 -197 c-4 -95 -8 -175 -9
-178 0 -3 11 -6 27 -8 35 -4 34 -15 -2 -41 -36 -26 -82 -27 -110 -3 -20 16
-21 22 -12 97 5 44 13 123 16 176 l7 96 41 20 c23 11 44 19 46 17 2 -2 0 -81
-4 -176z m355 155 c30 -27 31 -31 46 -177 l15 -150 -40 -40 c-22 -22 -43 -37
-46 -34 -4 3 -11 68 -16 144 -5 77 -11 146 -12 154 -1 8 -18 -41 -37 -110 -35
-129 -39 -136 -112 -183 l-28 -19 -25 54 c-34 74 -33 97 22 291 5 14 -1 17
-36 17 -22 0 -41 4 -41 8 0 19 58 62 82 62 70 0 82 -24 63 -125 -17 -86 -20
-154 -6 -140 5 6 20 54 34 108 26 99 64 167 92 167 8 0 28 -12 45 -27z"/>
<path d="M4082 7094 c-33 -23 -28 -37 12 -30 21 4 36 2 38 -4 5 -15 88 -1 88
15 0 32 -99 46 -138 19z"/>
<path d="M3977 7063 c-4 -3 -7 -13 -7 -22 1 -13 3 -13 11 2 11 19 8 33 -4 20z"/>
<path d="M4291 7065 c1 -19 18 -51 18 -35 0 8 -4 22 -9 30 -5 8 -9 11 -9 5z"/>
<path d="M3595 6660 c10 -11 20 -20 23 -20 3 0 -3 9 -13 20 -10 11 -20 20 -23
20 -3 0 3 -9 13 -20z"/>
<path d="M3900 6613 c-38 -21 -54 -24 -105 -19 -33 3 -79 12 -102 20 -54 19
-55 13 -3 -14 58 -29 145 -33 195 -9 22 11 47 26 55 34 18 19 15 18 -40 -12z"/>
<path d="M4605 6622 c-70 -35 -182 -37 -240 -4 l-40 22 29 -24 c74 -62 195
-53 306 23 26 18 -3 9 -55 -17z"/>
<path d="M2920 5936 c0 -2 8 -10 18 -17 15 -13 16 -12 3 4 -13 16 -21 21 -21
13z"/>
<path d="M5345 5930 c-10 -11 -13 -20 -7 -20 6 0 16 9 22 20 6 11 9 20 7 20
-2 0 -12 -9 -22 -20z"/>
<path d="M4015 6015 c-326 -71 -555 -396 -506 -718 48 -314 293 -539 602 -555
373 -18 679 272 679 643 0 93 -26 208 -63 282 -61 120 -169 232 -277 287 -124
65 -303 89 -435 61z m169 -81 c14 -5 16 -27 16 -139 0 -73 -3 -140 -6 -149
-10 -25 -100 -22 -114 3 -5 11 -10 75 -10 142 0 104 3 124 18 135 18 14 69 18
96 8z m364 -91 c2 -12 -5 -34 -15 -50 -10 -15 -12 -24 -6 -20 9 6 11 3 7 -7
-3 -9 -10 -14 -14 -11 -4 3 -7 -3 -6 -12 0 -10 -6 -18 -14 -18 -8 0 -15 -7
-15 -15 0 -8 -6 -15 -12 -15 -7 0 -12 -3 -10 -6 7 -17 -114 -119 -141 -119
-10 0 -27 8 -40 18 l-22 17 81 110 c44 61 94 127 111 148 l30 38 31 -19 c18
-10 33 -28 35 -39z m-617 -184 c51 -58 57 -68 44 -79 -11 -9 -22 -10 -38 -3
-34 16 -128 104 -121 114 3 5 0 8 -7 7 -7 -2 -13 4 -14 12 0 8 -6 14 -13 13
-11 -3 -35 31 -37 52 -1 6 -5 22 -9 37 -4 15 -4 32 0 39 7 13 39 -18 195 -192z
m-179 54 c34 -32 78 -76 97 -97 20 -22 44 -47 55 -57 11 -11 16 -24 12 -35 -6
-15 -14 -11 -53 27 -25 24 -53 51 -62 59 -108 98 -151 142 -146 150 13 21 38
8 97 -47z m848 54 c0 -1 -57 -58 -127 -127 -123 -122 -139 -125 -24 -5 87 90
151 146 151 132z m-355 -185 c82 -42 128 -115 129 -207 1 -75 -17 -120 -65
-166 -81 -77 -181 -96 -269 -51 -95 50 -132 109 -135 217 -4 105 37 169 135
215 56 26 146 23 205 -8z m516 -124 c5 -7 9 -32 9 -55 l0 -43 -179 0 -178 0
-6 29 c-3 16 -9 39 -12 52 l-6 24 182 3 c144 3 184 1 190 -10z m-889 -34 c-10
-69 5 -64 -177 -64 l-165 0 0 38 c0 21 2 41 4 43 3 2 80 3 173 3 158 -2 168
-3 165 -20z m653 -300 c137 -117 133 -108 72 -167 -21 -20 -35 -26 -51 -21
-30 10 -87 56 -127 105 -65 80 -70 106 -22 128 24 11 24 12 9 36 -9 14 -14 25
-11 25 3 0 62 -48 130 -106z m-660 66 c-5 -15 0 -21 19 -26 54 -13 39 -57 -51
-151 -86 -89 -95 -92 -143 -46 -21 21 -41 43 -42 50 -2 9 203 188 220 192 2 1
1 -8 -3 -19z m301 -205 c20 -83 17 -179 -5 -206 l-19 -24 -22 20 c-21 19 -22
25 -16 115 8 126 15 152 35 148 10 -2 20 -21 27 -53z"/>
<path d="M4092 5517 c-35 -11 -84 -65 -102 -113 -24 -62 11 -148 72 -180 45
-24 130 -15 164 17 43 40 57 77 51 133 -8 74 -32 115 -81 137 -46 21 -57 21
-104 6z"/>
<path d="M1337 4831 c-50 -54 -69 -90 -86 -171 -17 -79 -5 -72 19 12 23 78 47
122 93 175 45 51 25 39 -26 -16z"/>
<path d="M6515 4904 c-22 -13 -50 -24 -62 -24 -13 0 -23 -4 -23 -10 0 -5 6
-10 13 -10 21 1 91 36 106 53 17 21 15 21 -34 -9z"/>
<path d="M6939 4821 c36 -47 81 -156 81 -196 0 -8 5 -17 11 -20 13 -9 7 36
-17 112 -12 39 -32 70 -67 107 l-49 51 41 -54z"/>
<path d="M6150 2416 c0 -8 -20 -24 -45 -35 -50 -22 -61 -51 -19 -51 17 0 28 6
31 19 7 29 30 33 47 9 8 -11 27 -56 42 -99 24 -70 30 -79 52 -79 30 0 88 34
97 58 4 11 -3 25 -22 42 -16 14 -59 52 -97 85 -77 67 -86 73 -86 51z"/>
<path d="M2722 1919 c3 -24 33 -48 44 -36 8 8 -23 57 -37 57 -6 0 -9 -10 -7
-21z"/>
<path d="M2779 1869 c-13 -12 -57 -43 -96 -70 -40 -27 -73 -55 -73 -62 0 -21
38 -75 61 -87 25 -14 17 -25 102 133 58 107 60 133 6 86z"/>
<path d="M5313 1832 c-50 -25 -73 -42 -73 -54 0 -13 8 -18 25 -18 16 0 25 6
25 15 0 25 38 55 69 55 15 0 40 -9 55 -21 14 -11 26 -17 26 -12 0 13 -39 73
-47 72 -5 0 -41 -17 -80 -37z"/>
<path d="M4583 1606 c-75 -13 -96 -29 -68 -50 18 -13 23 -11 53 15 43 38 67
37 108 -8 l34 -37 -13 45 c-15 51 -21 53 -114 35z"/>
<path d="M3640 1601 c0 -21 33 -42 56 -37 13 4 24 2 24 -2 0 -5 -24 -47 -54
-93 -58 -89 -59 -101 -12 -132 13 -9 35 -19 50 -23 30 -7 30 -6 46 136 6 52
13 108 16 123 6 27 5 28 -15 15 -18 -11 -26 -10 -52 5 -34 19 -59 22 -59 8z"/>
</g>
</svg>
